<svg id="Capa_1" data-name="Capa 1" xmlns="http://www.w3.org/2000/svg" viewBox="0 0 206.43 180.58"><defs><style>.cls-1{fill:#fff;}</style></defs><g transform="translate(103.215 90.29) scale(1.12) translate(-103.215 -90.29)"><path d="M45.12,169c-4.14-2.36-6.57-4.49-7.85-6.49-3-4.63-5-6.94-6.82-11.86-.41-1.1-2.59-1.87-4.07-2.15-5.24-1-9.44-3.8-10.5-8.81-1.39-6.58-1.57-13.44-1.89-20.19a5.25,5.25,0,0,1,2.52-4c4.13-1.9,3.2-4.77,2.82-8.27-1.2-11-4-20.74-12.44-29.1C1,72.28-1.66,63.7,1.1,54.23L13.59,65C9.73,47.44,10,32.08,23.4,18.71c.83,8,1.56,15,2.28,22.06l1.39.2C31.86,25.39,40.8,13.2,56,4.54c-1,7.61-1.88,14.11-2.91,21.8C67.84,11,85.1,3,106.52,0L92,21.08c20.88-7.91,40.86-8.63,61.07-4,.18.5.35,1,.53,1.48L133.89,31.47c7.38,1.89,14.48,3.19,21.21,5.57s12.77,5.74,19.14,8.67l-.45,1.9-18.41,5.27c9.49,4.64,18.66,8.93,26.73,16.76L166.8,71.4l14.68,13.8-.78,1.12-16.13-2.94c1.91,4.29,3.41,7.66,5.26,11.84l-9.42-1.52c-2.38,9.81,1.74,15.58,11.43,15.8,5.83.14,11.66-.4,17.49-.38,8.8,0,13.64,3.74,15.75,12.3a55.34,55.34,0,0,1,1.35,13.36c-9.93-15.47-25.39-17.29-42.24-17.11,3.22,2.79,6.19,6,9.73,8.27s7.49,3.59,11.25,5.37c13.58,6.43,15.19,18,3.91,28-1,.87-2.08,1.6-3.84,2.93,0-3.19-.05-5.74,0-8.29.13-5-2.08-8.57-6.47-10.93a76,76,0,0,1-8.6-5.06c-2.67-1.94-5-4.35-7.93-6.95-2.9,6.47-7,11.35-14.85,11.06a2.37,2.37,0,0,0-1.72,1.4c-3.33,11.42-12,18-21.33,24.44C105,178.16,91.43,178.8,82,180.55c-2.92.21-11.76-.75-18.24-3C54.58,174.45,47.51,172.7,45.12,169ZM23.87,74c7.44-4.89,14.41-10.88,22.44-14.46,18.69-8.35,38.6-9.82,58.76-7,18.53,2.63,34.22,10.56,45.81,25.7.58.75,1.42,1.82,2.17,1.85,5,.16,10,.08,14.94.08l.29-1.65-18.39-9.67,20.91-2c.17-.57.34-1.15.52-1.73L139.07,52l26-5.71c-14.82-7.41-29.27-9.95-44.36-9.91l-.18-1.6L144,20c-23.34-2.49-44.62-.25-63.43,13.81l-1-.92L96.42,6.19a88.53,88.53,0,0,0-29.14,14C58.43,26.78,52.79,35.86,48,45.64l-1.22-.46C47.87,34.93,49,24.67,50.1,13.64,38,25,30.93,37.8,30.16,54.77c-6.65-7.06-9.46-14.46-10.81-22.66C14.09,46.9,14.42,61,24,74.12L5.89,65.84A32.62,32.62,0,0,0,19.12,84.26ZM146.19,128.9c.26-2.17,1.42-5.42.6-6-4.32-3.24-3.47-7.88-4-12.08-.47-3.69-2.83-4.33-5.84-4.88-3.38-.6-4.33,1.2-5.07,3.91-2.26,8.26-7.61,13.19-16.22,14-11.48,1-21.79-1.08-29.56-10.73-4.64-5.75-8.7-5.19-12.27,1.28-5,9.15-13.34,13.26-23.12,14.67-11.15,1.61-17.21-2.59-20.42-13.37a23.25,23.25,0,0,0-.92-2.26l-1.83.48c2.1,10.15,4,20.35,6.35,30.43,2.84,12,10.36,20,21.78,24.84,21.86,9.24,42.87,6.62,63.61-3.49C130,160.4,137.33,152.28,141,140.88c1-3.15,2.05-6.29,3.19-9.79,3.18,6.6,5.41,7.53,9.5,4.34,5.41-4.24,8.72-16.65,6-23-1.32-3.07-3.34-5.77-7.18-4.68s-6,3.66-5.45,7.63l6.49-1.87,1.12,1.7c-4.33.81-4.92,2.9-3.74,6.43C152.2,125.51,150,127.88,146.19,128.9Zm.46-28.18c.28-.56.56-1.13.85-1.69-3.09-2.35-5.9-5.25-9.31-6.94-29.3-14.58-59.26-12.85-89.12-2.28-6.7,2.37-12.48,7.42-18.56,11.42-1.21.8-1.87,2.43-2.79,3.67A40.65,40.65,0,0,1,51.5,93.67c7.82-.9,14.88.57,20.19,7.11,2.2,2.7,11,2,13.42-.93C96.35,86.16,117.33,85,129.64,97.29a6.47,6.47,0,0,0,3.2,2C137.42,100,142,100.29,146.65,100.72Zm-121,22.84,1.07-.74L23,117.53c-1.58,1.18-4.56,2.44-4.51,3.53a107.78,107.78,0,0,0,2.41,18.88c.64,2.73,3.85,5.45,6.9,3.36,1.07-.74-.22-5-.52-7.61-.05-.39-.67-.69-1-1.09a31.43,31.43,0,0,1-3.56-5.29c-.88-2-1.12-4.3-1.76-7ZM163.6,88.83l-8.94-7C155.59,86,156.51,90.13,163.6,88.83Z"/><path d="M98,137.65c-.12,5.85-4.57,10.09-11,11.41-8,1.63-14.16-.73-16.41-5.34,4.32,1.11,9.39,3.2,14.58,3.54C91.06,147.65,94.77,143.09,98,137.65Z"/><path d="M84.5,129.5l6.13-1.45L86.34,124c3.38.77,6.38,2.46,6,6.08-.08.81-4.79,1.16-7.36,1.72Z"/><path d="M77.82,133.79c-2-.88-5.59-1.51-5.77-2.68-.33-2,1.44-4.38,2.33-6.6l1.41.56c-.68,1.41-1.36,2.82-2,4.06l5.21,2Z"/><path d="M77.18,142c4.55-3.52,8.74-4.77,14.33-2.37Z"/><path class="cls-1" d="M63,70l.69,6-1.38.16-.67-6-7.16.91-.17-1.26,7.2-.91-.5-4.3-6,.78-.17-1.28,6-.76-.42-3.79,1.87-.07c0,.19-.17.34-.44.42l.35,3.25,5.8-.77.16,1.3-5.81.75.49,4.28,7.19-.9.17,1.26Z"/><path class="cls-1" d="M87.54,61.58a.69.69,0,0,1-.25.19c-.74,7.47-3.28,11.48-9.66,14.06a8.38,8.38,0,0,0-1-1c6.1-2.48,8.48-6.11,9.11-12.38H74.88v5.27H73.56V61.12H86.22l.21-.15Z"/><path class="cls-1" d="M104.1,63.09a1.8,1.8,0,0,1-.28.27c-2,6.19-5.14,10.16-10.42,12.83a5.23,5.23,0,0,0-1-1,17.9,17.9,0,0,0,9.68-11.31H95.29A19.42,19.42,0,0,1,91,68.55a7.73,7.73,0,0,0-1.09-.88A19.45,19.45,0,0,0,96,59.38l1.82.52c-.08.19-.31.25-.56.25-.38.84-.78,1.64-1.22,2.4h6.72l.23-.11Z"/></g></svg>
